<svg viewBox="-101 0 512 512" width="100%" height="100%" fill="black" xmlns="http://www.w3.org/2000/svg"><path d="m295 130h-15v-35c0-8.285156-6.714844-15-15-15h-15v-35c0-8.285156-6.714844-15-15-15h-65v-15c0-8.285156-6.714844-15-15-15s-15 6.714844-15 15v15h-65c-8.285156 0-15 6.714844-15 15v35h-15c-8.285156 0-15 6.714844-15 15v35h-15c-8.285156 0-15 6.714844-15 15v280c0 8.285156 6.714844 15 15 15h5v57c0 8.285156 6.714844 15 15 15h60c8.285156 0 15-6.714844 15-15v-57h90v57c0 8.285156 6.714844 15 15 15h60c8.285156 0 15-6.714844 15-15v-57h5c8.285156 0 15-6.714844 15-15v-280c0-8.285156-6.714844-15-15-15zm-205-70h130v20h-130zm-30 50h190v20h-190zm-30 50h250v250h-250zm50 322h-30v-42h30zm180 0h-30v-42h30zm0 0"/><path d="m155 390c57.898438 0 105-47.101562 105-105s-47.101562-105-105-105-105 47.101562-105 105 47.101562 105 105 105zm0-180c41.355469 0 75 33.644531 75 75s-33.644531 75-75 75-75-33.644531-75-75 33.644531-75 75-75zm0 0"/><path d="m115 300h40c8.285156 0 15-6.714844 15-15v-40c0-8.285156-6.714844-15-15-15s-15 6.714844-15 15v25h-25c-8.285156 0-15 6.714844-15 15s6.714844 15 15 15zm0 0"/></svg>