<svg viewBox="-101 0 512 512" width="100%" height="100%" fill="black" xmlns="http://www.w3.org/2000/svg"><path d="m95 512h-60c-8.285156 0-15-6.714844-15-15v-27h90v27c0 8.285156-6.714844 15-15 15zm0 0"/><path d="m275 512h-60c-8.285156 0-15-6.714844-15-15v-27h90v27c0 8.285156-6.714844 15-15 15zm0 0"/><path d="m235 30h-65v-15c0-8.285156-6.714844-15-15-15s-15 6.714844-15 15v15h-65c-8.285156 0-15 6.714844-15 15v25h190v-25c0-8.285156-6.714844-15-15-15zm0 0"/><path d="m280 140h-250v-25c0-8.285156 6.714844-15 15-15h220c8.285156 0 15 6.714844 15 15zm0 0"/><path d="m155 230c-41.355469 0-75 33.644531-75 75s33.644531 75 75 75 75-33.644531 75-75-33.644531-75-75-75zm15 75c0 8.285156-6.714844 15-15 15h-40c-8.285156 0-15-6.714844-15-15s6.714844-15 15-15h25v-25c0-8.285156 6.714844-15 15-15s15 6.714844 15 15zm0 0"/><path d="m295 170h-280c-8.285156 0-15 6.714844-15 15v240c0 8.285156 6.714844 15 15 15h280c8.285156 0 15-6.714844 15-15v-240c0-8.285156-6.714844-15-15-15zm-140 240c-57.898438 0-105-47.101562-105-105s47.101562-105 105-105 105 47.101562 105 105-47.101562 105-105 105zm0 0"/></svg>