<svg xmlns="http://www.w3.org/2000/svg" width="100%" height="100%" viewBox="0 0 37.449 38.5">
  <path id="ic_settings_24px" d="M35.3,23.137a15,15,0,0,0,.135-1.886,15,15,0,0,0-.135-1.886l4.062-3.176a.971.971,0,0,0,.231-1.232l-3.85-6.661a.968.968,0,0,0-1.174-.423L29.778,9.8A14.064,14.064,0,0,0,26.524,7.91l-.732-5.1A.939.939,0,0,0,24.85,2h-7.7a.939.939,0,0,0-.943.809l-.732,5.1A14.79,14.79,0,0,0,12.222,9.8L7.428,7.871a.939.939,0,0,0-1.174.423L2.4,14.955a.949.949,0,0,0,.231,1.232L6.7,19.364a15.266,15.266,0,0,0-.135,1.887A15.266,15.266,0,0,0,6.7,23.137L2.635,26.313A.971.971,0,0,0,2.4,27.545l3.85,6.661a.968.968,0,0,0,1.174.424L12.222,32.7a14.064,14.064,0,0,0,3.253,1.886l.731,5.1a.939.939,0,0,0,.943.809h7.7a.939.939,0,0,0,.943-.809l.732-5.1A14.79,14.79,0,0,0,29.778,32.7l4.793,1.925a.939.939,0,0,0,1.174-.424l3.85-6.661a.971.971,0,0,0-.231-1.232ZM21,27.988a6.738,6.738,0,1,1,6.738-6.738A6.745,6.745,0,0,1,21,27.988Z" transform="translate(-2.271 -2)" fill="black"/>
</svg>
