<svg width="100%" height="100%" viewBox="0 0 31 31" fill="none" xmlns="http://www.w3.org/2000/svg">
<path fill-rule="evenodd" clip-rule="evenodd" d="M15.4998 0.357143C13.8478 0.357143 12.5086 1.69634 12.5086 3.34832V12.5088H3.34832C1.69634 12.5088 0.357141 13.848 0.357141 15.5C0.357141 17.152 1.69634 18.4912 3.34832 18.4912H12.5086V27.6517C12.5086 29.3037 13.8478 30.6429 15.4998 30.6429C17.1517 30.6429 18.4909 29.3037 18.4909 27.6517V18.4912H27.6517C29.3037 18.4912 30.6429 17.152 30.6429 15.5C30.6429 13.848 29.3037 12.5088 27.6517 12.5088H18.4909V3.34832C18.4909 1.69634 17.1517 0.357143 15.4998 0.357143Z" fill="white"/>
</svg>
